<?xml version="1.0" standalone="no"?>
<!DOCTYPE svg PUBLIC "-//W3C//DTD SVG 20010904//EN"
 "http://www.w3.org/TR/2001/REC-SVG-20010904/DTD/svg10.dtd">
<svg version="1.0" xmlns="http://www.w3.org/2000/svg"
width="71" height="64" viewBox="0 0 200.000000 200.000000"
 preserveAspectRatio="xMidYMid meet">

<g transform="translate(0.000000,200.000000) scale(0.100000,-0.100000)"
fill="#000000" stroke="none">
<path d="M863 1806 c-39 -8 -100 -23 -135 -35 -63 -21 -211 -101 -223 -121 -4
-7 159 -10 497 -10 l503 1 -30 25 c-48 40 -184 102 -270 124 -104 27 -249 33
-342 16z"/>
<path d="M277 1383 c-19 -38 -38 -78 -42 -90 l-6 -23 771 0 771 0 -6 23 c-4
12 -23 52 -42 90 l-35 67 -688 0 -688 0 -35 -67z"/>
<path d="M186 1074 c-8 -20 -8 -128 0 -148 6 -14 87 -16 814 -16 727 0 808 2
814 16 8 20 8 128 0 148 -6 14 -87 16 -814 16 -727 0 -808 -2 -814 -16z"/>
<path d="M235 708 c4 -13 23 -53 42 -90 l35 -68 688 0 688 0 35 68 c19 37 38
77 42 90 l6 22 -771 0 -771 0 6 -22z"/>
<path d="M525 334 c47 -39 182 -102 270 -126 112 -29 298 -30 410 0 86 23 221
87 270 127 l30 24 -505 0 -505 0 30 -25z"/>
</g>
</svg>
