<?xml version="1.0" standalone="no"?>
<!DOCTYPE svg PUBLIC "-//W3C//DTD SVG 20010904//EN"
 "http://www.w3.org/TR/2001/REC-SVG-20010904/DTD/svg10.dtd">
<svg version="1.0" xmlns="http://www.w3.org/2000/svg"
 width="71" height="64" viewBox="0 0 1200.000000 1200.000000"
 preserveAspectRatio="xMidYMid meet">

<g transform="translate(0.000000,1200.000000) scale(0.100000,-0.100000)"
fill="#000000" stroke="none">
<path d="M5680 10490 c-632 -61 -1203 -290 -1685 -675 -130 -103 -368 -342
-475 -475 -107 -134 -238 -334 -320 -488 l-65 -121 -45 -6 c-508 -72 -944
-288 -1300 -645 -686 -685 -854 -1703 -426 -2575 217 -441 574 -803 1001
-1016 87 -43 117 -52 173 -56 97 -7 165 21 231 93 143 157 92 368 -114 471
-335 168 -600 431 -764 759 -134 268 -198 601 -171 884 14 151 33 240 80 383
184 552 653 973 1223 1096 100 22 272 40 420 44 l88 2 58 141 c146 355 325
627 582 881 396 392 882 629 1454 710 170 25 503 22 680 -6 825 -126 1528
-629 1898 -1359 149 -292 222 -537 273 -920 10 -72 20 -136 23 -141 3 -4 89 3
191 16 362 47 587 16 865 -122 312 -155 563 -448 669 -782 44 -141 60 -246 60
-403 0 -275 -70 -506 -220 -732 -150 -226 -374 -400 -655 -508 -122 -46 -177
-88 -217 -164 -22 -43 -27 -64 -27 -131 0 -67 5 -88 27 -131 52 -100 147 -157
258 -157 79 1 193 39 355 120 589 293 982 854 1054 1505 77 688 -247 1385
-824 1777 -289 196 -611 309 -944 329 l-106 7 -18 70 c-294 1136 -1229 2026
-2383 2269 -65 13 -173 32 -239 41 -138 19 -535 28 -665 15z"/>
<path d="M1285 3429 c-182 -15 -326 -79 -446 -200 -62 -62 -85 -95 -127 -180
-60 -122 -81 -199 -91 -326 -38 -528 197 -849 654 -893 242 -22 444 40 585
180 76 76 110 139 117 218 4 49 2 61 -18 86 -28 35 -75 56 -128 56 -48 0 -85
-28 -143 -109 -100 -138 -167 -182 -290 -189 -301 -18 -482 211 -465 592 8
192 56 315 162 415 30 29 81 64 112 79 52 24 70 27 163 27 157 0 212 -30 322
-178 58 -77 88 -97 152 -97 62 0 93 14 116 52 60 98 -14 249 -172 354 -134 89
-307 128 -503 113z"/>
<path d="M2243 3419 c-17 -5 -43 -23 -57 -40 l-26 -31 0 -715 c0 -806 -5 -758
77 -789 69 -27 139 -7 173 49 19 31 20 57 20 737 0 680 -1 706 -20 737 -10 17
-28 36 -38 42 -30 16 -94 21 -129 10z"/>
<path d="M6070 3420 c-39 -10 -75 -49 -84 -93 -3 -16 -6 -135 -6 -263 0 -270
0 -269 -81 -180 -74 81 -126 101 -270 101 -113 0 -116 -1 -191 -38 -173 -85
-267 -270 -268 -524 0 -200 53 -357 155 -459 118 -119 303 -161 467 -108 59
19 138 89 163 144 28 62 48 50 57 -33 10 -82 28 -113 78 -128 89 -27 154 14
165 102 3 30 5 358 3 729 -3 729 -1 697 -55 735 -25 17 -91 25 -133 15z m-235
-658 c109 -56 160 -168 160 -352 -1 -130 -10 -171 -57 -250 -46 -76 -108 -113
-198 -118 -191 -11 -316 160 -297 406 14 184 82 292 207 333 41 14 142 3 185
-19z"/>
<path d="M6596 3420 c-55 -17 -96 -73 -96 -132 0 -107 123 -174 211 -115 96
64 84 199 -21 241 -45 18 -52 18 -94 6z"/>
<path d="M3022 2970 c-178 -47 -299 -159 -360 -334 -33 -95 -41 -277 -18 -386
45 -212 165 -342 367 -396 88 -23 281 -24 369 -1 192 51 321 182 365 370 85
366 -82 687 -392 752 -96 21 -242 18 -331 -5z m294 -194 c61 -28 116 -91 146
-165 19 -49 22 -75 22 -196 0 -124 -2 -147 -23 -199 -30 -76 -98 -149 -159
-173 -103 -40 -236 -12 -302 63 -141 161 -129 515 22 637 76 62 202 76 294 33z"/>
<path d="M3999 2976 c-49 -28 -50 -43 -47 -477 l3 -404 29 -62 c51 -110 136
-171 272 -194 147 -24 288 24 397 135 35 36 69 66 74 66 14 0 23 -35 23 -92 0
-38 6 -54 28 -80 25 -27 36 -32 79 -32 27 -1 61 5 74 12 55 29 54 18 57 552 2
457 1 498 -15 530 -10 19 -29 40 -43 47 -34 17 -125 16 -159 -1 -53 -28 -55
-43 -61 -406 l-5 -335 -28 -47 c-101 -173 -354 -184 -431 -19 -20 43 -21 66
-26 403 l-5 358 -27 27 c-24 24 -37 28 -95 30 -46 2 -76 -1 -94 -11z"/>
<path d="M6560 2977 c-14 -7 -33 -28 -43 -47 -16 -32 -17 -73 -15 -533 l3
-499 32 -28 c60 -54 172 -47 217 13 21 28 21 37 21 520 0 536 -1 544 -56 572
-34 18 -125 19 -159 2z"/>
<path d="M7058 2961 l-33 -29 -3 -489 c-2 -268 0 -502 3 -519 12 -70 95 -108
182 -85 80 22 77 11 83 390 5 315 6 339 26 382 43 93 139 160 233 162 104 3
169 -33 214 -117 21 -39 22 -55 27 -396 3 -195 9 -363 14 -372 22 -46 113 -69
181 -46 74 24 75 29 75 458 0 415 -4 453 -61 542 -61 95 -149 139 -290 146
-156 7 -249 -29 -353 -138 -78 -81 -96 -78 -96 15 0 86 -39 125 -124 125 -36
0 -52 -6 -78 -29z"/>
<path d="M8630 2975 c-228 -51 -377 -229 -268 -320 21 -18 41 -25 72 -25 38 0
50 7 112 60 95 83 140 103 240 108 103 6 170 -15 214 -64 25 -29 30 -43 30
-88 0 -62 -24 -100 -76 -122 -17 -7 -108 -22 -200 -33 -93 -11 -196 -28 -229
-36 -186 -49 -268 -143 -269 -310 -1 -134 54 -218 183 -279 61 -29 73 -31 171
-30 86 1 119 6 179 27 86 30 163 80 220 142 l39 43 7 -58 c12 -106 59 -153
154 -154 104 -1 144 46 121 142 -10 40 -15 165 -19 422 -6 349 -7 367 -28 405
-41 76 -108 124 -223 160 -77 24 -341 30 -430 10z m380 -821 c-78 -160 -347
-210 -453 -85 -22 26 -27 43 -27 84 0 110 65 155 271 188 120 19 166 33 204
62 20 15 20 14 23 -95 2 -95 0 -116 -18 -154z"/>
<path d="M9631 2976 c-50 -28 -50 -26 -51 -558 0 -292 4 -507 10 -522 5 -14
21 -33 36 -42 32 -22 116 -25 159 -6 58 24 59 30 66 357 6 320 12 363 61 435
41 60 68 73 170 80 143 11 178 38 178 139 0 82 -56 131 -150 131 -99 0 -169
-61 -220 -193 -21 -54 -34 -73 -49 -75 -20 -3 -21 1 -21 83 0 95 -15 143 -51
169 -28 19 -104 21 -138 2z"/>
<path d="M10459 2974 c-37 -24 -59 -65 -59 -112 0 -27 63 -219 185 -568 143
-405 184 -535 179 -557 -3 -16 -19 -44 -36 -63 -26 -29 -36 -34 -77 -34 -113
-1 -171 -38 -171 -109 0 -80 63 -121 187 -121 137 0 221 59 289 204 34 71 415
1141 435 1221 37 145 -176 220 -245 87 -8 -15 -60 -200 -117 -411 -63 -234
-108 -385 -117 -388 -7 -3 -18 -1 -23 4 -5 5 -50 157 -99 338 -128 465 -125
457 -160 490 -25 24 -40 29 -87 32 -42 3 -65 -1 -84 -13z"/>
</g>
</svg>
